<svg width="26" height="25" viewBox="0 0 26 25" fill="none" xmlns="http://www.w3.org/2000/svg">
<g id="dash">
<g id="Group 480955940">
<path id="Rectangle" d="M17.6906 18H8.30938C7.78471 18 7.35938 17.6014 7.35938 17.1098V16.774C7.35938 15.5027 8.19862 14.364 9.4674 13.9137C11.7436 13.1059 14.2564 13.1059 16.5326 13.9137C17.8014 14.364 18.6406 15.5027 18.6406 16.774V17.1098C18.6406 17.6014 18.2153 18 17.6906 18Z" stroke="#39414A" stroke-linecap="round" stroke-linejoin="round"/>
<path id="Polygon 586" d="M11.5577 11.0672C12.462 11.507 13.5382 11.507 14.4425 11.0672C15.2743 10.6626 15.8689 9.93021 16.063 9.07114L16.1238 8.80226C16.323 7.92049 16.1096 7.00098 15.5375 6.27641L15.4395 6.15222C14.8672 5.42751 13.9622 5 13.0001 5C12.038 5 11.1329 5.42751 10.5607 6.15222L10.4627 6.27641C9.89056 7.00098 9.67714 7.92049 9.87641 8.80226L9.93717 9.07114C10.1313 9.93021 10.7259 10.6626 11.5577 11.0672Z" stroke="#39414A" stroke-linecap="round" stroke-linejoin="round"/>
<path id="Subtract" d="M3.5 15.8118C3.5 16.0985 3.74811 16.331 4.05417 16.331H7.39368C7.54355 15.3697 8.17471 14.529 9.09268 14.0726C9.00595 14.0255 8.91442 13.9844 8.81863 13.9502C7.49646 13.4774 6.0348 13.4774 4.71263 13.9502C3.98242 14.2113 3.5 14.8676 3.5 15.6V15.8118Z" stroke="#39414A" stroke-linecap="round" stroke-linejoin="round"/>
<path id="Subtract_2" d="M8.53702 11.1309C8.42579 11.6268 8.08375 12.0501 7.60453 12.285C7.07903 12.5425 6.45223 12.5425 5.92673 12.285C5.44751 12.0501 5.10546 11.6268 4.99424 11.1309L4.95567 10.9589C4.8412 10.4485 4.96404 9.91662 5.29347 9.49623L5.35593 9.41653C5.68544 8.99605 6.2089 8.74768 6.76563 8.74768C7.32235 8.74768 7.84582 8.99605 8.17532 9.41653L8.23778 9.49623C8.56721 9.91662 8.69005 10.4485 8.57558 10.9589L8.53702 11.1309Z" stroke="#39414A" stroke-linecap="round" stroke-linejoin="round"/>
<path id="Subtract_3" d="M21.9459 16.331H18.6064C18.4566 15.3697 17.8254 14.529 16.9075 14.0726C16.9942 14.0255 17.0857 13.9844 17.1815 13.9502C18.5036 13.4774 19.9653 13.4774 21.2875 13.9502C22.0177 14.2113 22.5001 14.8676 22.5001 15.6V15.8118C22.5001 16.0985 22.252 16.331 21.9459 16.331Z" stroke="#39414A" stroke-linecap="round" stroke-linejoin="round"/>
<path id="Subtract_4" d="M17.463 11.1309C17.5742 11.6268 17.9163 12.0501 18.3955 12.285C18.921 12.5425 19.5478 12.5425 20.0733 12.285C20.5525 12.0501 20.8945 11.6268 21.0058 11.1309L21.0443 10.9589C21.1588 10.4485 21.036 9.91662 20.7065 9.49623L20.6441 9.41653C20.3146 8.99605 19.7911 8.74768 19.2344 8.74768C18.6777 8.74768 18.1542 8.99605 17.8247 9.41653L17.7622 9.49623C17.4328 9.91662 17.31 10.4485 17.4244 10.9589L17.463 11.1309Z" stroke="#39414A" stroke-linecap="round" stroke-linejoin="round"/>
</g>
</g>
</svg>
