<svg width="26" height="25" viewBox="0 0 26 25" fill="none" xmlns="http://www.w3.org/2000/svg">
<path d="M13 14.3184C15.0711 14.3184 16.75 12.6395 16.75 10.5684C16.75 8.49736 15.0711 6.81842 13 6.81842C10.9289 6.81842 9.25 8.49736 9.25 10.5684C9.25 12.6395 10.9289 14.3184 13 14.3184Z" stroke="#58595B" stroke-linecap="round" stroke-linejoin="round"/>
<path d="M7.5 20.3184V19.3184C7.5 16.557 9.96244 14.3184 13 14.3184C16.0375 14.3184 18.5 16.557 18.5 19.3184V20.3184" stroke="#58595B" stroke-linecap="round"/>
<path d="M22.5 12.5C22.5 17.7467 18.2467 22 13 22C7.75329 22 3.5 17.7467 3.5 12.5C3.5 7.25329 7.75329 3 13 3C18.2467 3 22.5 7.25329 22.5 12.5Z" stroke="#39414A" stroke-linecap="round" stroke-linejoin="round"/>
</svg>
