<svg width="180" height="19" viewBox="0 0 180 19" fill="none" xmlns="http://www.w3.org/2000/svg">
<path fill-rule="evenodd" clip-rule="evenodd" d="M46.3831 11.2745L44.3085 5.42823L42.2335 11.2745H46.3831ZM47.7198 15.0842H40.8968L39.6289 18.6344H34.9722L42.0955 0.365686H46.5907L53.7367 18.6344H48.9877L47.7198 15.0842Z" fill="#07121D"/>
<path fill-rule="evenodd" clip-rule="evenodd" d="M7.09981 9.78704C8.03758 9.78704 8.74442 9.55638 9.221 9.09508C9.69713 8.63377 9.93548 7.9772 9.93548 7.12535C9.93548 6.2722 9.69713 5.61171 9.221 5.14123C8.74442 4.67207 8.03758 4.43747 7.09981 4.43747H4.56431V9.78704H7.09981ZM7.37648 0.365686C8.83668 0.365686 10.1046 0.639557 11.1804 1.18736C12.2561 1.73647 13.0859 2.51887 13.6701 3.53715C14.2539 4.55412 14.546 5.75061 14.546 7.12535C14.546 8.5001 14.2539 9.69137 13.6701 10.7005C13.0859 11.7096 12.2561 12.488 11.1804 13.0358C10.1046 13.5836 8.83668 13.8589 7.37648 13.8589H4.56431V18.6344H0V0.365686H7.37648Z" fill="#07121D"/>
<path fill-rule="evenodd" clip-rule="evenodd" d="M84.1679 14.902C85.7666 14.902 86.5653 14.2847 86.5653 13.0489C86.5653 11.8144 85.7666 11.1959 84.1679 11.1959H80.3409V14.902H84.1679ZM80.3409 4.09806V7.62074H83.4757C85.013 7.62074 85.7816 7.02969 85.7816 5.84628C85.7816 4.68122 85.013 4.09806 83.4757 4.09806H80.3409ZM88.2253 9.1082C89.1468 9.47383 89.8691 10.0439 90.3923 10.8184C90.9144 11.5916 91.176 12.5274 91.176 13.623C91.176 15.2244 90.6065 16.4589 89.4697 17.3291C88.333 18.1993 86.688 18.6344 84.536 18.6344H75.8228V0.365686H84.0753C86.1347 0.365686 87.7021 0.796831 88.7786 1.65785C89.8541 2.51886 90.3923 3.68 90.3923 5.14123C90.3923 6.01142 90.2037 6.78985 89.8274 7.47788C89.4501 8.16459 88.9164 8.70849 88.2253 9.1082Z" fill="#07121D"/>
<path fill-rule="evenodd" clip-rule="evenodd" d="M170.087 12.0058L168.381 14.0672V18.6344H163.863V0.365686H168.381V7.96018L174.629 0.365686H179.654L173.061 8.45556L180 18.6344H174.698L170.087 12.0058Z" fill="#07121D"/>
<path fill-rule="evenodd" clip-rule="evenodd" d="M149.547 19C147.841 19 146.308 18.5911 144.948 17.7733C143.588 16.9543 142.52 15.8246 141.744 14.3804C140.968 12.9362 140.579 11.3098 140.579 9.5C140.579 7.69016 140.968 6.0638 141.744 4.6196C142.52 3.1754 143.588 2.0444 144.948 1.22663C146.308 0.408865 147.841 -1.90735e-06 149.547 -1.90735e-06C151.253 -1.90735e-06 152.786 0.408865 154.146 1.22663C155.506 2.0444 156.574 3.1754 157.35 4.6196C158.126 6.0638 158.514 7.69016 158.514 9.5C158.514 11.3098 158.126 12.9362 157.35 14.3804C156.574 15.8246 155.506 16.9543 154.146 17.7733C152.786 18.5911 151.253 19 149.547 19Z" fill="#5FC344"/>
<path fill-rule="evenodd" clip-rule="evenodd" d="M65.6096 12.0831V18.6344H61.0451V12.0058L54.8906 0.365686H59.7081L63.5351 7.62074L67.3622 0.365686H71.7877L65.6096 12.0831Z" fill="#07121D"/>
<path fill-rule="evenodd" clip-rule="evenodd" d="M19.7104 0.365686H24.2749V14.5364H31.9743V18.6344H19.7104V0.365686Z" fill="#07121D"/>
<path fill-rule="evenodd" clip-rule="evenodd" d="M127.093 19C125.388 19 123.854 18.5911 122.494 17.7733C121.134 16.9543 120.066 15.8246 119.29 14.3804C118.514 12.9362 118.125 11.3098 118.125 9.5C118.125 7.69016 118.514 6.0638 119.29 4.6196C120.066 3.1754 121.134 2.0444 122.494 1.22663C123.854 0.408865 125.388 -1.90735e-06 127.093 -1.90735e-06C128.799 -1.90735e-06 130.332 0.408865 131.692 1.22663C133.052 2.0444 134.121 3.1754 134.896 4.6196C135.672 6.0638 136.061 7.69016 136.061 9.5C136.061 11.3098 135.672 12.9362 134.896 14.3804C134.121 15.8246 133.052 16.9543 131.692 17.7733C130.332 18.5911 128.799 19 127.093 19Z" fill="#88D03C"/>
<path fill-rule="evenodd" clip-rule="evenodd" d="M104.674 19C102.969 19 101.435 18.5911 100.075 17.7733C98.7145 16.9543 97.6472 15.8246 96.8704 14.3804C96.0948 12.9362 95.707 11.3098 95.707 9.5C95.707 7.69016 96.0948 6.0638 96.8704 4.6196C97.6472 3.1754 98.7145 2.0444 100.075 1.22663C101.435 0.408865 102.969 -1.90735e-06 104.674 -1.90735e-06C106.38 -1.90735e-06 107.913 0.408865 109.273 1.22663C110.633 2.0444 111.702 3.1754 112.477 4.6196C113.253 6.0638 113.642 7.69016 113.642 9.5C113.642 11.3098 113.253 12.9362 112.477 14.3804C111.702 15.8246 110.633 16.9543 109.273 17.7733C107.913 18.5911 106.38 19 104.674 19Z" fill="#BAE162"/>
</svg>
