<svg width="64" height="19" viewBox="0 0 64 19" fill="none" xmlns="http://www.w3.org/2000/svg">
<g id="Group 480955941">
<path id="path54" fill-rule="evenodd" clip-rule="evenodd" d="M54.4815 19C52.6703 19 51.0433 18.5911 49.5995 17.7733C48.1556 16.9543 47.0226 15.8246 46.1981 14.3804C45.3748 12.9362 44.9619 11.3098 44.9619 9.5C44.9619 7.69016 45.3748 6.0638 46.1981 4.6196C47.0226 3.1754 48.1556 2.0444 49.5995 1.22663C51.0433 0.408865 52.6703 -1.90735e-06 54.4815 -1.90735e-06C56.2928 -1.90735e-06 57.9197 0.408865 59.3636 1.22663C60.8075 2.0444 61.9404 3.1754 62.765 4.6196C63.5883 6.0638 63.9999 7.69016 63.9999 9.5C63.9999 11.3098 63.5883 12.9362 62.765 14.3804C61.9404 15.8246 60.8075 16.9543 59.3636 17.7733C57.9197 18.5911 56.2928 19 54.4815 19Z" fill="#5FC344"/>
<path id="path60" fill-rule="evenodd" clip-rule="evenodd" d="M31.9819 19C30.172 19 28.5439 18.5911 27.1001 17.7733C25.6564 16.9543 24.5235 15.8246 23.699 14.3804C22.8758 12.9362 22.4629 11.3098 22.4629 9.5C22.4629 7.69016 22.8758 6.0638 23.699 4.6196C24.5235 3.1754 25.6564 2.0444 27.1001 1.22663C28.5439 0.408865 30.172 -1.90735e-06 31.9819 -1.90735e-06C33.7931 -1.90735e-06 35.4199 0.408865 36.8637 1.22663C38.3074 2.0444 39.4415 3.1754 40.2648 4.6196C41.088 6.0638 41.5009 7.69016 41.5009 9.5C41.5009 11.3098 41.088 12.9362 40.2648 14.3804C39.4415 15.8246 38.3074 16.9543 36.8637 17.7733C35.4199 18.5911 33.7931 19 31.9819 19Z" fill="#88D03C"/>
<path id="path62" fill-rule="evenodd" clip-rule="evenodd" d="M9.51838 19C7.70834 19 6.08017 18.5911 4.63631 17.7733C3.19246 16.9543 2.05948 15.8246 1.23495 14.3804C0.411644 12.9362 0 11.3098 0 9.5C0 7.69016 0.411644 6.0638 1.23495 4.6196C2.05948 3.1754 3.19246 2.0444 4.63631 1.22663C6.08017 0.408865 7.70834 -1.90735e-06 9.51838 -1.90735e-06C11.3297 -1.90735e-06 12.9566 0.408865 14.4005 1.22663C15.8443 2.0444 16.9785 3.1754 17.8018 4.6196C18.6251 6.0638 19.038 7.69016 19.038 9.5C19.038 11.3098 18.6251 12.9362 17.8018 14.3804C16.9785 15.8246 15.8443 16.9543 14.4005 17.7733C12.9566 18.5911 11.3297 19 9.51838 19Z" fill="#BAE162"/>
</g>
</svg>
