<svg width="60" height="60" viewBox="0 0 60 60" fill="none" xmlns="http://www.w3.org/2000/svg">
<g id="Web/D_&#208;&#164;&#208;&#190;&#209;&#130;&#208;&#190;">
<rect width="60" height="60" rx="30" fill="#E8E9EE"/>
<path id="&#240;&#159;&#145;&#190;" d="M18.9861 44V38.7092H22.1495V37.0628H17.8042V34.0215H16.4021V32.6266H15V22.5727H17.7115V19.456H19.2642V16H23.9803V17.8851H28.4994V21.0646H31.5006V17.8851H36.0197V16H40.7358V19.456H42.2885V22.5727H45V32.6266H43.5979V34.0215H42.1958V37.0628H37.8505V38.7092H41.0255V44H36.1703V40.5314H31.3384V37.0628H28.6616V40.5314H23.8297V44H18.9861ZM20.9444 19.456H22.4392V17.8474H20.9444V19.456ZM37.5608 19.456H39.0556V17.8474H37.5608V19.456ZM23.8297 38.7092H26.9699V35.2406H33.0301V38.7092H36.1703V35.2406H39.0904V32.1993H41.9061V30.8043H43.3198V24.395H41.8134V30.5655H39.0904V25.8905H37.6651V24.3447H36.2978V22.8869H34.6871V19.7074H33.1808V22.8869H26.8192V19.7074H25.3129V22.8869H23.7022V24.3447H22.3349V25.8905H20.9096V30.5655H18.1866V24.395H16.6802V30.8043H18.1054V32.1993H20.9096V35.2406H23.8297V38.7092ZM19.4844 24.5206H20.9907V22.8869H22.4739V21.2908H19.4844V24.5206ZM39.0093 24.5206H40.5156V21.2908H37.5261V22.8869H39.0093V24.5206ZM23.7833 32.237V27.7002H26.7149V32.237H23.7833ZM33.2851 32.237V27.7002H36.2167V32.237H33.2851ZM20.6663 42.1777H22.1495V40.5314H20.6663V42.1777ZM37.8505 42.1777H39.3453V40.5314H37.8505V42.1777Z" fill="#39414A"/>
</g>
</svg>
